<?xml version="1.0" encoding="utf-8"?>
<!-- Generator: Adobe Illustrator 24.1.0, SVG Export Plug-In . SVG Version: 6.00 Build 0)  -->
<svg version="1.1" id="Capa_1" xmlns="http://www.w3.org/2000/svg" xmlns:xlink="http://www.w3.org/1999/xlink" x="0px" y="0px"
	 viewBox="0 0 25 25" style="enable-background:new 0 0 25 25;" xml:space="preserve">
<style type="text/css">
	.st0{fill:#fff;}
</style>
<path class="st0" d="M21.1,6.1l-4.9-4.9c-0.3-0.3-0.7-0.5-1.1-0.5H5.5c-0.9,0-1.6,0.7-1.6,1.6v20.1c0,0.9,0.7,1.6,1.6,1.6H20
	c0.9,0,1.6-0.7,1.6-1.6V7.2C21.6,6.8,21.4,6.4,21.1,6.1z M19.3,6.1h-2.9c-0.1,0-0.2-0.1-0.2-0.2V3L19.3,6.1z M20,22.6H5.5
	c-0.1,0-0.2-0.1-0.2-0.2V2.3c0-0.1,0.1-0.2,0.2-0.2h9.3v3.9c0,0.9,0.7,1.6,1.6,1.6h3.9v14.9C20.2,22.5,20.1,22.6,20,22.6z"/>
<path class="st0" d="M13.5,11.1h4.3c0.4,0,0.7-0.3,0.7-0.7c0-0.4-0.3-0.7-0.7-0.7h-4.3c-0.4,0-0.7,0.3-0.7,0.7
	C12.8,10.8,13.1,11.1,13.5,11.1L13.5,11.1z"/>
<path class="st0" d="M13.5,15.6h4.3c0.4,0,0.7-0.3,0.7-0.7s-0.3-0.7-0.7-0.7h-4.3c-0.4,0-0.7,0.3-0.7,0.7S13.1,15.6,13.5,15.6
	L13.5,15.6z"/>
<path class="st0" d="M17.8,18.8h-4.4c-0.4,0-0.7,0.3-0.7,0.7s0.3,0.7,0.7,0.7h4.4c0.4,0,0.7-0.3,0.7-0.7S18.2,18.8,17.8,18.8z"/>
<path class="st0" d="M10.1,8.6l-1.6,1.6L8.1,9.8c-0.3-0.3-0.7-0.3-1,0c-0.3,0.3-0.3,0.7,0,1L8,11.6c0.1,0.1,0.3,0.2,0.5,0.2
	c0.2,0,0.3-0.1,0.5-0.2L11,9.5c0.3-0.3,0.3-0.7,0-1C10.8,8.3,10.3,8.3,10.1,8.6L10.1,8.6z"/>
<path class="st0" d="M10.1,13.5L8.5,15l-0.4-0.4c-0.3-0.3-0.7-0.3-1,0s-0.3,0.7,0,1L8,16.5c0.1,0.1,0.3,0.2,0.5,0.2
	c0.2,0,0.3-0.1,0.5-0.2l2.1-2.1c0.3-0.3,0.3-0.7,0-1C10.8,13.2,10.3,13.2,10.1,13.5L10.1,13.5z"/>
<path class="st0" d="M10.1,18l-1.6,1.6l-0.4-0.4c-0.3-0.3-0.7-0.3-1,0c-0.3,0.3-0.3,0.7,0,1L8,21c0.1,0.1,0.3,0.2,0.5,0.2
	c0.2,0,0.3-0.1,0.5-0.2L11,19c0.3-0.3,0.3-0.7,0-1C10.8,17.7,10.3,17.7,10.1,18L10.1,18z"/>
</svg>
