<?xml version="1.0" encoding="utf-8"?>
<!-- Generator: Adobe Illustrator 24.1.0, SVG Export Plug-In . SVG Version: 6.00 Build 0)  -->
<svg version="1.1" id="outline" xmlns="http://www.w3.org/2000/svg" xmlns:xlink="http://www.w3.org/1999/xlink" x="0px" y="0px"
	 viewBox="0 0 25 25" style="enable-background:new 0 0 25 25;" xml:space="preserve">
<style type="text/css">
	.st0{fill:#0B0827;}
</style>
<path class="st0" d="M23.3,0.5H1.7c-0.7,0-1.2,0.5-1.2,1.2v21.5c0,0.7,0.5,1.2,1.2,1.2h21.5c0.7,0,1.2-0.5,1.2-1.2V1.7
	C24.5,1.1,23.9,0.5,23.3,0.5z M23.7,23.3c0,0.2-0.2,0.4-0.4,0.4H1.7c-0.2,0-0.4-0.2-0.4-0.4V1.7c0-0.2,0.2-0.4,0.4-0.4h21.5
	c0.2,0,0.4,0.2,0.4,0.4V23.3z"/>
<circle class="st0" cx="2.5" cy="2.5" r="0.4"/>
<circle class="st0" cx="3.7" cy="2.5" r="0.4"/>
<circle class="st0" cx="4.9" cy="2.5" r="0.4"/>
<path class="st0" d="M12.1,10.5h-1.6c-0.2,0-0.4,0.2-0.4,0.4c0,0,0,0,0,0v1.6c0,0.2,0.2,0.4,0.4,0.4c0,0,0,0,0,0h1.6
	c0.2,0,0.4-0.2,0.4-0.4c0,0,0,0,0,0v-1.6C12.5,10.7,12.3,10.5,12.1,10.5C12.1,10.5,12.1,10.5,12.1,10.5z M11.7,12.1h-0.8v-0.8h0.8
	V12.1z"/>
<path class="st0" d="M13.7,11.3h1.2v0.8h-1.2V11.3z"/>
<path class="st0" d="M15.7,11.3h5.6v0.8h-5.6V11.3z"/>
<path class="st0" d="M12.1,13.7h-1.6c-0.2,0-0.4,0.2-0.4,0.4c0,0,0,0,0,0v1.6c0,0.2,0.2,0.4,0.4,0.4c0,0,0,0,0,0h1.6
	c0.2,0,0.4-0.2,0.4-0.4c0,0,0,0,0,0v-1.6C12.5,13.9,12.3,13.7,12.1,13.7C12.1,13.7,12.1,13.7,12.1,13.7z M11.7,15.3h-0.8v-0.8h0.8
	V15.3z"/>
<path class="st0" d="M13.7,14.5h1.2v0.8h-1.2V14.5z"/>
<path class="st0" d="M15.7,14.5h5.6v0.8h-5.6V14.5z"/>
<path class="st0" d="M12.1,16.9h-1.6c-0.2,0-0.4,0.2-0.4,0.4c0,0,0,0,0,0v1.6c0,0.2,0.2,0.4,0.4,0.4c0,0,0,0,0,0h1.6
	c0.2,0,0.4-0.2,0.4-0.4c0,0,0,0,0,0v-1.6C12.5,17.1,12.3,16.9,12.1,16.9C12.1,16.9,12.1,16.9,12.1,16.9z M11.7,18.5h-0.8v-0.8h0.8
	V18.5z"/>
<path class="st0" d="M13.7,17.7h1.2v0.8h-1.2V17.7z"/>
<path class="st0" d="M15.7,17.7h5.6v0.8h-5.6V17.7z"/>
<path class="st0" d="M12.1,20.1h-1.6c-0.2,0-0.4,0.2-0.4,0.4c0,0,0,0,0,0v1.6c0,0.2,0.2,0.4,0.4,0.4c0,0,0,0,0,0h1.6
	c0.2,0,0.4-0.2,0.4-0.4c0,0,0,0,0,0v-1.6C12.5,20.3,12.3,20.1,12.1,20.1C12.1,20.1,12.1,20.1,12.1,20.1z M11.7,21.7h-0.8v-0.8h0.8
	V21.7z"/>
<path class="st0" d="M13.7,20.9h1.2v0.8h-1.2V20.9z"/>
<path class="st0" d="M15.7,20.9h5.6v0.8h-5.6V20.9z"/>
<path class="st0" d="M22.1,4.5H2.9c-0.2,0-0.4,0.2-0.4,0.4c0,0,0,0,0,0v17.2c0,0.2,0.2,0.4,0.4,0.4c0,0,0,0,0,0h5.6
	c0.2,0,0.4-0.2,0.4-0.4c0,0,0,0,0,0V9.3h13.2c0.2,0,0.4-0.2,0.4-0.4c0,0,0,0,0,0v-4C22.5,4.7,22.3,4.5,22.1,4.5
	C22.1,4.5,22.1,4.5,22.1,4.5z M8.1,21.7H3.3V9.3h4.8V21.7z M21.7,8.5H3.3V5.3h18.4V8.5z"/>
</svg>
