<?xml version="1.0" encoding="utf-8"?>
<!-- Generator: Adobe Illustrator 24.1.0, SVG Export Plug-In . SVG Version: 6.00 Build 0)  -->
<svg version="1.1" id="Layer_1" xmlns="http://www.w3.org/2000/svg" xmlns:xlink="http://www.w3.org/1999/xlink" x="0px" y="0px"
	 viewBox="0 0 27 27" style="enable-background:new 0 0 27 27;" xml:space="preserve">
<style type="text/css">
	.st0{fill:#FFFFFF;}
</style>
<g>
	<g>
		<g>
			<path class="st0" d="M24.1,8.2H2.9c-1.2,0-2.1,1-2.1,2.1v6.4c0,1.2,1,2.1,2.1,2.1h21.3c1.2,0,2.1-1,2.1-2.1v-6.4
				C26.3,9.1,25.3,8.2,24.1,8.2z M25.2,16.7c0,0.6-0.5,1.1-1.1,1.1H2.9c-0.6,0-1.1-0.5-1.1-1.1v-6.4c0-0.6,0.5-1.1,1.1-1.1h21.3
				c0.6,0,1.1,0.5,1.1,1.1V16.7z"/>
			<path class="st0" d="M7.4,12.4c-0.1-0.3-0.5-0.3-0.7-0.2l-0.6,0.3v-0.7c0-0.3-0.2-0.5-0.5-0.5S5,11.6,5,11.9v0.7l-0.6-0.3
				c-0.3-0.1-0.6-0.1-0.7,0.2c-0.1,0.3-0.1,0.6,0.2,0.7l0.6,0.3l-0.6,0.3c-0.3,0.1-0.3,0.5-0.2,0.7c0.1,0.2,0.3,0.3,0.5,0.3
				c0.1,0,0.2,0,0.3-0.1L5,14.4v0.7c0,0.3,0.2,0.5,0.5,0.5s0.5-0.2,0.5-0.5v-0.7l0.6,0.3c0.1,0,0.2,0.1,0.3,0.1
				c0.2,0,0.4-0.1,0.5-0.3c0.1-0.3,0.1-0.6-0.2-0.7l-0.6-0.3l0.6-0.3C7.4,13,7.5,12.7,7.4,12.4z"/>
			<path class="st0" d="M12.7,12.4c-0.1-0.3-0.5-0.3-0.7-0.2l-0.6,0.3v-0.7c0-0.3-0.2-0.5-0.5-0.5c-0.3,0-0.5,0.2-0.5,0.5v0.7
				l-0.6-0.3c-0.3-0.1-0.6-0.1-0.7,0.2c-0.1,0.3-0.1,0.6,0.2,0.7l0.6,0.3l-0.6,0.3C8.9,14,8.9,14.3,9,14.6c0.1,0.2,0.3,0.3,0.5,0.3
				c0.1,0,0.2,0,0.3-0.1l0.6-0.3v0.7c0,0.3,0.2,0.5,0.5,0.5c0.3,0,0.5-0.2,0.5-0.5v-0.7l0.6,0.3c0.1,0,0.2,0.1,0.3,0.1
				c0.2,0,0.4-0.1,0.5-0.3c0.1-0.3,0.1-0.6-0.2-0.7l-0.6-0.3l0.6-0.3C12.7,13,12.8,12.7,12.7,12.4z"/>
			<path class="st0" d="M18,12.4c-0.1-0.3-0.5-0.3-0.7-0.2l-0.6,0.3v-0.7c0-0.3-0.2-0.5-0.5-0.5s-0.5,0.2-0.5,0.5v0.7L15,12.2
				c-0.3-0.1-0.6-0.1-0.7,0.2c-0.1,0.3-0.1,0.6,0.2,0.7l0.6,0.3l-0.6,0.3c-0.3,0.1-0.3,0.5-0.2,0.7c0.1,0.2,0.3,0.3,0.5,0.3
				c0.1,0,0.2,0,0.3-0.1l0.6-0.3v0.7c0,0.3,0.2,0.5,0.5,0.5s0.5-0.2,0.5-0.5v-0.7l0.6,0.3c0.1,0,0.2,0.1,0.3,0.1
				c0.2,0,0.4-0.1,0.5-0.3c0.1-0.3,0.1-0.6-0.2-0.7l-0.6-0.3l0.6-0.3C18.1,13,18.1,12.7,18,12.4z"/>
			<path class="st0" d="M23.3,12.4c-0.1-0.3-0.5-0.3-0.7-0.2L22,12.6v-0.7c0-0.3-0.2-0.5-0.5-0.5s-0.5,0.2-0.5,0.5v0.7l-0.6-0.3
				c-0.3-0.1-0.6-0.1-0.7,0.2c-0.1,0.3-0.1,0.6,0.2,0.7l0.6,0.3l-0.6,0.3c-0.3,0.1-0.3,0.5-0.2,0.7c0.1,0.2,0.3,0.3,0.5,0.3
				c0.1,0,0.2,0,0.3-0.1l0.6-0.3v0.7c0,0.3,0.2,0.5,0.5,0.5s0.5-0.2,0.5-0.5v-0.7l0.6,0.3c0.1,0,0.2,0.1,0.3,0.1
				c0.2,0,0.4-0.1,0.5-0.3c0.1-0.3,0.1-0.6-0.2-0.7l-0.6-0.3l0.6-0.3C23.4,13,23.5,12.7,23.3,12.4z"/>
		</g>
	</g>
</g>
</svg>
