<?xml version="1.0" encoding="utf-8"?>
<!-- Generator: Adobe Illustrator 24.1.0, SVG Export Plug-In . SVG Version: 6.00 Build 0)  -->
<svg version="1.1" id="Layer_1" xmlns="http://www.w3.org/2000/svg" xmlns:xlink="http://www.w3.org/1999/xlink" x="0px" y="0px"
	 viewBox="0 0 25 25" style="enable-background:new 0 0 25 25;" xml:space="preserve">
<style type="text/css">
	.st0{fill:#0B0827;}
</style>
<path class="st0" d="M23.8,11.9c-0.4-0.3-0.8-0.5-1.3-0.6c-0.6,0-1.1,0.2-1.5,0.6l-2.6,2.6c-0.1-0.1-0.1-0.2-0.2-0.3
	c-0.3-0.4-0.8-0.6-1.3-0.6h-3.7c-0.7,0-1.4-0.1-2-0.3c-1.7-0.5-3.3-0.1-4.6,1c-0.5,0.4-1,0.9-1.2,1.3L4.7,15
	c-0.1-0.1-0.2-0.1-0.3-0.1c0,0,0,0,0,0c-0.1,0-0.2,0.1-0.3,0.1l-3.2,3.3c-0.1,0.1-0.1,0.2-0.1,0.3c0,0.1,0.1,0.2,0.1,0.3l5.4,5.2
	c0.1,0.1,0.2,0.1,0.3,0.1c0.1,0,0.2,0,0.3-0.1l3.2-3.3c0.1-0.1,0.1-0.2,0.1-0.3c0-0.1-0.1-0.2-0.1-0.3l-0.3-0.3l0.6-0.1
	c0.4,0,0.8-0.1,1.2-0.1h5.6c0.9,0,1.7-0.2,2.3-0.6c0,0,0,0,0,0c0.2-0.2,0.4-0.3,0.6-0.5l3.8-4.4C24.5,13.5,24.5,12.5,23.8,11.9z
	 M6.6,23.2l-4.8-4.5L4.4,16l4.7,4.6L6.6,23.2z M23.2,13.6l-3.8,4.4c-0.1,0.1-0.3,0.3-0.4,0.4c-0.5,0.3-1.1,0.4-1.8,0.4h-5.6
	c-0.4,0-0.8,0-1.3,0.1l-1.4,0.2L6,16.3C6.2,16,6.6,15.5,7.1,15c1.1-0.9,2.4-1.2,3.8-0.8c0.7,0.2,1.5,0.3,2.3,0.3h3.7
	c0.7,0,0.8,0.6,0.8,0.9c0,0.2-0.1,0.5-0.2,0.6c-0.2,0.2-0.4,0.3-0.6,0.3h-3.2c-0.3,0-0.5,0.2-0.5,0.5s0.2,0.5,0.5,0.5h3.2
	c0.5,0,1-0.2,1.3-0.6c0.3-0.3,0.4-0.7,0.4-1.2l3-3c0.4-0.4,1.1-0.3,1.5,0C23.3,12.7,23.6,13.1,23.2,13.6z"/>
<path class="st0" d="M12.2,16.7c-0.1-0.3-0.3-0.4-0.6-0.3c-0.3,0.1-0.4,0.3-0.3,0.6l0,0c0.1,0.2,0.2,0.4,0.5,0.4c0,0,0.1,0,0.1,0
	C12.1,17.2,12.2,17,12.2,16.7L12.2,16.7z"/>
<path class="st0" d="M3.8,10.8h4.5c0.2,0,0.5-0.1,0.7-0.2c0.2,0.1,0.4,0.2,0.7,0.2h4.5c0.2,0,0.5-0.1,0.7-0.2
	c0.2,0.1,0.4,0.2,0.7,0.2h4.5c0.6,0,1.1-0.5,1.1-1.1V7.6c0-0.9-0.5-1.8-1.3-2.2c0.4-0.5,0.6-1.1,0.6-1.7c0-1.5-1.2-2.7-2.7-2.7
	s-2.7,1.2-2.7,2.7c0,0.6,0.2,1.2,0.6,1.7c-0.3,0.2-0.6,0.4-0.9,0.7c-0.2-0.3-0.5-0.6-0.9-0.7c0.4-0.5,0.6-1.1,0.6-1.7
	c0-1.5-1.2-2.7-2.7-2.7S9.3,2.2,9.3,3.7c0,0.6,0.2,1.2,0.6,1.7C9.5,5.5,9.2,5.8,9,6.1C8.8,5.8,8.5,5.5,8.2,5.4
	c0.4-0.5,0.6-1.1,0.6-1.7C8.8,2.2,7.6,1,6.1,1C4.6,1,3.4,2.2,3.4,3.7c0,0.6,0.2,1.2,0.6,1.7C3.2,5.8,2.7,6.6,2.7,7.6v2.1
	C2.7,10.3,3.2,10.8,3.8,10.8z M17.8,1.9c1,0,1.8,0.8,1.8,1.8c0,1-0.8,1.8-1.8,1.8c-1,0-1.8-0.8-1.8-1.8C16,2.7,16.8,1.9,17.8,1.9z
	 M16.6,6.1c0.4,0.2,0.8,0.3,1.2,0.3c0.4,0,0.8-0.1,1.2-0.3c0.7,0.1,1.3,0.7,1.3,1.5v2.1c0,0.1-0.1,0.2-0.2,0.2h-4.5
	c-0.1,0-0.2-0.1-0.2-0.2V7.6C15.3,6.8,15.9,6.2,16.6,6.1z M11.9,1.9c1,0,1.8,0.8,1.8,1.8c0,1-0.8,1.8-1.8,1.8c-1,0-1.8-0.8-1.8-1.8
	S11,1.9,11.9,1.9z M10.7,6.1c0.4,0.2,0.8,0.3,1.2,0.3c0.4,0,0.8-0.1,1.2-0.3c0.7,0.1,1.3,0.7,1.3,1.5v2.1c0,0.1-0.1,0.2-0.2,0.2H9.7
	c-0.1,0-0.2-0.1-0.2-0.2V7.6C9.5,6.8,10,6.2,10.7,6.1z M6.1,1.9c1,0,1.8,0.8,1.8,1.8c0,1-0.8,1.8-1.8,1.8S4.3,4.6,4.3,3.7
	C4.3,2.7,5.1,1.9,6.1,1.9z M3.6,7.6c0-0.7,0.5-1.4,1.3-1.5c0.4,0.2,0.8,0.3,1.2,0.3c0.4,0,0.8-0.1,1.2-0.3C8,6.2,8.5,6.8,8.5,7.6
	v2.1c0,0.1-0.1,0.2-0.2,0.2H3.8c-0.1,0-0.2-0.1-0.2-0.2V7.6z"/>
</svg>
