<?xml version="1.0" encoding="utf-8"?>
<!-- Generator: Adobe Illustrator 24.1.0, SVG Export Plug-In . SVG Version: 6.00 Build 0)  -->
<svg version="1.1" id="Layer_1" xmlns="http://www.w3.org/2000/svg" xmlns:xlink="http://www.w3.org/1999/xlink" x="0px" y="0px"
	 viewBox="0 0 25 25" style="enable-background:new 0 0 25 25;" xml:space="preserve">
<style type="text/css">
	.st0{fill:#fff;}
</style>
<g id="_x35_-Talk_On_Phone">
	<g>
		<path class="st0" d="M21.1,18l-3.1-2.1c-0.4-0.3-0.9-0.4-1.4-0.4c-0.8,0-1.5,0.4-1.9,1l-0.7,1c-1.2-0.8-2.5-1.9-3.8-3.2
			C9,13,7.9,11.7,7.1,10.5l1-0.7c0.5-0.4,0.9-0.9,1-1.5c0.1-0.6,0-1.2-0.4-1.8L6.6,3.4C6,2.6,4.9,2.2,3.9,2.5
			C3.6,2.6,3.4,2.8,3.1,2.9L2.7,3.2C2.6,3.3,2.5,3.4,2.4,3.5C1.9,4,1.5,4.7,1.3,5.4c-0.9,3.3,1.3,8.3,5.4,12.4
			c3.5,3.5,7.6,5.6,10.8,5.6h0c0.6,0,1.1-0.1,1.5-0.2c0.8-0.2,1.4-0.6,1.9-1.1c0.1-0.1,0.2-0.2,0.3-0.3l0.3-0.4
			c0.1-0.2,0.3-0.5,0.4-0.8C22.4,19.7,22,18.6,21.1,18z M21.1,20.3c-0.1,0.2-0.2,0.4-0.3,0.6l-0.3,0.4c-0.1,0.1-0.1,0.1-0.2,0.2
			c-0.4,0.4-0.9,0.7-1.5,0.8c-0.4,0.1-0.8,0.2-1.3,0.2h0c-3,0-6.9-2-10.2-5.3c-3.8-3.8-6-8.6-5.2-11.5c0.2-0.6,0.4-1.1,0.8-1.5
			C3.1,4.1,3.2,4,3.2,4l0.4-0.3C3.8,3.6,4,3.5,4.2,3.4c0.1-0.1,0.3-0.1,0.4-0.1c0.5,0,0.9,0.2,1.2,0.6L8,7c0.2,0.3,0.3,0.7,0.2,1.1
			C8.1,8.5,7.9,8.8,7.6,9l-1.4,1C6,10.1,6,10.4,6.1,10.6c0.8,1.3,2.1,2.9,3.5,4.3c1.4,1.4,3,2.7,4.3,3.5c0.2,0.1,0.5,0.1,0.6-0.1
			l1-1.4c0.4-0.6,1.3-0.8,2-0.3l3.1,2.1C21.1,19.1,21.3,19.8,21.1,20.3z"/>
		<path class="st0" d="M23.4,1.6H12.1c-0.3,0-0.5,0.2-0.5,0.5v6.6c0,0.3,0.2,0.5,0.5,0.5h1.7l1.1,2.4c0.1,0.2,0.2,0.3,0.4,0.3
			s0.3-0.1,0.4-0.3l1.1-2.4h6.5c0.3,0,0.5-0.2,0.5-0.5V2C23.9,1.8,23.7,1.6,23.4,1.6z M22.9,8.2h-6.4c-0.2,0-0.3,0.1-0.4,0.3
			l-0.8,1.8l-0.8-1.8c-0.1-0.2-0.2-0.3-0.4-0.3h-1.5V2.5h10.4V8.2z"/>
		<path class="st0" d="M14.5,4.9H21c0.3,0,0.5-0.2,0.5-0.5S21.3,3.9,21,3.9h-6.5c-0.3,0-0.5,0.2-0.5,0.5S14.2,4.9,14.5,4.9z"/>
		<path class="st0" d="M14.5,6.7H21c0.3,0,0.5-0.2,0.5-0.5S21.3,5.8,21,5.8h-6.5C14.2,5.8,14,6,14,6.3S14.2,6.7,14.5,6.7z"/>
	</g>
</g>
</svg>
