<?xml version="1.0" encoding="utf-8"?>
<!-- Generator: Adobe Illustrator 24.1.0, SVG Export Plug-In . SVG Version: 6.00 Build 0)  -->
<svg version="1.1" id="Capa_1" xmlns="http://www.w3.org/2000/svg" xmlns:xlink="http://www.w3.org/1999/xlink" x="0px" y="0px"
	 viewBox="0 0 25 25" style="enable-background:new 0 0 25 25;" xml:space="preserve">
<style type="text/css">
	.st0{fill:#0B0827;}
</style>
<g>
	<path class="st0" d="M9.1,7.3L8.7,7.4C8.1,7.7,7.6,8.2,7.5,8.8L7.3,9.6c-0.1,0.3,0,0.7,0.3,1C7.8,10.8,8.2,11,8.5,11h3.4
		c0.4,0,0.7-0.2,0.9-0.4c0.2-0.3,0.3-0.6,0.3-1L13,8.9c-0.1-0.7-0.6-1.2-1.2-1.4l-0.4-0.2V6.7c0,0,0,0,0-0.1
		c0.3-0.3,0.5-0.7,0.5-1.2V4.5c0-0.9-0.7-1.6-1.6-1.6S8.6,3.6,8.6,4.5v1c0,0.4,0.2,0.9,0.5,1.2c0,0,0,0,0,0L9.1,7.3z M12.3,9
		l0.1,0.7c0,0.1,0,0.3-0.1,0.4c-0.1,0.1-0.2,0.2-0.4,0.2H8.5c-0.2,0-0.3-0.1-0.4-0.2C8,10,8,9.8,8,9.7L8.2,9
		c0.1-0.4,0.4-0.7,0.8-0.9L9.2,8c0,0,0,0,0,0c0.3,0.3,0.7,0.4,1,0.4c0.4,0,0.7-0.1,1-0.4c0,0,0,0,0,0l0.3,0.1
		C12,8.2,12.2,8.6,12.3,9z M9.3,4.5c0-0.5,0.4-0.9,0.9-0.9c0.4,0,0.8,0.3,0.9,0.7c0,0-0.1,0-0.1,0.1c-0.4,0.2-0.8,0.1-0.9,0.1
		C10,4.3,9.8,4.4,9.7,4.5C9.6,4.7,9.6,4.9,9.7,5c0.2,0.1,0.4,0.2,0.7,0.2c0.2,0,0.5,0,0.8-0.1v0.4c0,0.3-0.1,0.5-0.3,0.7
		c-0.1,0.1-0.2,0.2-0.3,0.2c0,0,0,0,0,0c-0.1,0-0.2,0.1-0.4,0.1C9.7,6.4,9.3,6,9.3,5.5L9.3,4.5z M10.2,7.1
		C10.2,7.1,10.2,7.1,10.2,7.1c0.2,0,0.4,0,0.5-0.1v0.5c-0.3,0.2-0.7,0.2-0.9,0V7C9.9,7.1,10,7.1,10.2,7.1z"/>
	<path class="st0" d="M4.8,16.8h10.7c0.2,0,0.3-0.2,0.3-0.3c0-0.2-0.2-0.3-0.3-0.3H4.8c-0.2,0-0.3,0.2-0.3,0.3
		C4.5,16.7,4.6,16.8,4.8,16.8z"/>
	<path class="st0" d="M4.8,18.7h10.7c0.2,0,0.3-0.2,0.3-0.3S15.7,18,15.5,18H4.8c-0.2,0-0.3,0.2-0.3,0.3S4.6,18.7,4.8,18.7z"/>
	<path class="st0" d="M4.8,20.6h10.7c0.2,0,0.3-0.2,0.3-0.3s-0.2-0.3-0.3-0.3H4.8c-0.2,0-0.3,0.2-0.3,0.3S4.6,20.6,4.8,20.6z"/>
	<path class="st0" d="M4.8,22.4h10.7c0.2,0,0.3-0.2,0.3-0.3c0-0.2-0.2-0.3-0.3-0.3H4.8c-0.2,0-0.3,0.2-0.3,0.3
		C4.5,22.3,4.6,22.4,4.8,22.4z"/>
	<path class="st0" d="M4.5,12.8c0,0.2,0.2,0.3,0.3,0.3h10.7c0.2,0,0.3-0.2,0.3-0.3s-0.2-0.3-0.3-0.3H4.8C4.6,12.5,4.5,12.6,4.5,12.8
		z"/>
	<path class="st0" d="M4.8,15h10.7c0.2,0,0.3-0.2,0.3-0.3c0-0.2-0.2-0.3-0.3-0.3H4.8c-0.2,0-0.3,0.2-0.3,0.3C4.5,14.8,4.6,15,4.8,15
		z"/>
	<path class="st0" d="M3.5,16.8c0.2,0,0.3-0.2,0.3-0.3c0-0.2-0.2-0.3-0.3-0.3s-0.3,0.2-0.3,0.3C3.2,16.7,3.4,16.8,3.5,16.8z"/>
	<path class="st0" d="M3.5,13.1c0.2,0,0.3-0.2,0.3-0.3s-0.2-0.3-0.3-0.3s-0.3,0.2-0.3,0.3C3.2,13,3.4,13.1,3.5,13.1z"/>
	<path class="st0" d="M3.5,15c0.2,0,0.3-0.2,0.3-0.3c0-0.2-0.2-0.3-0.3-0.3s-0.3,0.2-0.3,0.3C3.2,14.8,3.4,15,3.5,15z"/>
	<path class="st0" d="M3.5,18.7c0.2,0,0.3-0.2,0.3-0.3c0-0.2-0.2-0.3-0.3-0.3s-0.3,0.2-0.3,0.3C3.2,18.5,3.4,18.7,3.5,18.7z"/>
	<path class="st0" d="M3.5,20.6c0.2,0,0.3-0.2,0.3-0.3c0-0.2-0.2-0.3-0.3-0.3S3.2,20,3.2,20.2C3.2,20.4,3.4,20.6,3.5,20.6z"/>
	<path class="st0" d="M3.5,22.4c0.2,0,0.3-0.2,0.3-0.3c0-0.2-0.2-0.3-0.3-0.3s-0.3,0.2-0.3,0.3C3.2,22.3,3.4,22.4,3.5,22.4z"/>
	<path class="st0" d="M23,6.2c-0.1-0.2-0.3-0.3-0.3-0.5c-0.1-0.2-0.1-0.4-0.1-0.6c0-0.4-0.1-0.9-0.4-1.2S21.4,3.5,21,3.5
		c-0.2,0-0.4-0.1-0.6-0.1C20.2,3.3,20,3.1,19.8,3c-0.2-0.2-0.5-0.4-0.8-0.5V2.4c0-0.9-0.7-1.6-1.6-1.6H3.1c-0.9,0-1.6,0.7-1.6,1.6
		v1.3c0,0.2,0.2,0.3,0.3,0.3s0.3-0.2,0.3-0.3V2.4c0-0.5,0.4-1,1-1h14.3c0.5,0,1,0.4,1,1v0.1C18,2.6,17.8,2.8,17.5,3
		c-0.2,0.1-0.3,0.3-0.5,0.3c-0.2,0.1-0.4,0.1-0.6,0.1c-0.4,0-0.9,0.1-1.2,0.4c-0.3,0.3-0.4,0.8-0.4,1.2c0,0.2-0.1,0.4-0.1,0.6
		c-0.1,0.2-0.2,0.3-0.3,0.5c-0.3,0.3-0.5,0.7-0.5,1.2s0.3,0.8,0.5,1.2c0.1,0.2,0.3,0.3,0.3,0.5c0.1,0.2,0.1,0.4,0.1,0.6
		c0,0.4,0.1,0.9,0.4,1.2c0.3,0.3,0.8,0.4,1.2,0.4c0.1,0,0.2,0,0.3,0v5.2c0,0.2,0.1,0.4,0.3,0.5c0.2,0.1,0.4,0.1,0.6-0.1l0.7-0.6v6.3
		c0,0.5-0.4,1-1,1H3.1c-0.5,0-1-0.4-1-1V5.2c0-0.2-0.2-0.3-0.3-0.3S1.4,5.1,1.4,5.2v17.3c0,0.9,0.7,1.6,1.6,1.6h14.3
		c0.9,0,1.6-0.7,1.6-1.6v-6.3l0.7,0.6C19.9,17,20,17,20.1,17c0.1,0,0.2,0,0.2-0.1c0.2-0.1,0.3-0.3,0.3-0.5v-3.8
		c0-0.2-0.2-0.3-0.3-0.3s-0.3,0.2-0.3,0.3v3.5L19,15.4c-0.1-0.1-0.2-0.1-0.3-0.1c-0.1,0-0.2,0-0.3,0.1l-0.9,0.7v-4.5
		c0,0,0,0,0.1,0.1c0.3,0.3,0.7,0.5,1.2,0.5c0.5,0,0.8-0.3,1.2-0.5c0.2-0.1,0.3-0.3,0.5-0.3c0.2-0.1,0.4-0.1,0.6-0.1
		c0.4,0,0.9-0.1,1.2-0.4c0.3-0.3,0.4-0.8,0.4-1.2c0-0.2,0.1-0.4,0.1-0.6c0.1-0.2,0.2-0.3,0.3-0.5c0.3-0.3,0.5-0.7,0.5-1.2
		C23.6,6.9,23.3,6.5,23,6.2L23,6.2z M22.5,8.1c-0.2,0.2-0.3,0.4-0.4,0.7c-0.1,0.3-0.1,0.5-0.2,0.8c0,0.3-0.1,0.6-0.2,0.8
		c-0.2,0.2-0.5,0.2-0.8,0.2c-0.3,0-0.5,0.1-0.8,0.2c-0.2,0.1-0.5,0.3-0.7,0.4c-0.3,0.2-0.5,0.4-0.7,0.4s-0.5-0.2-0.7-0.4
		c-0.2-0.2-0.4-0.3-0.7-0.4c0,0-0.1,0-0.1,0c-0.2-0.1-0.5-0.1-0.7-0.1c-0.3,0-0.6-0.1-0.8-0.2c-0.2-0.2-0.2-0.5-0.2-0.8
		c0-0.3-0.1-0.5-0.2-0.8c-0.1-0.2-0.3-0.5-0.4-0.7c-0.2-0.3-0.4-0.5-0.4-0.7s0.2-0.5,0.4-0.7C15,6.4,15.2,6.2,15.3,6
		c0.1-0.3,0.1-0.5,0.2-0.8c0-0.3,0.1-0.6,0.2-0.8c0.2-0.2,0.5-0.2,0.8-0.2c0.3,0,0.5-0.1,0.8-0.2c0.2-0.1,0.5-0.3,0.7-0.4
		c0.3-0.2,0.5-0.4,0.7-0.4c0,0,0,0,0,0c0,0,0,0,0,0c0.2,0,0.5,0.2,0.7,0.4c0.2,0.2,0.4,0.3,0.7,0.4c0.3,0.1,0.5,0.1,0.8,0.2
		c0.3,0,0.6,0.1,0.8,0.2c0.2,0.2,0.2,0.5,0.2,0.8c0,0.3,0.1,0.5,0.2,0.8c0.1,0.2,0.3,0.5,0.4,0.7c0.2,0.3,0.4,0.5,0.4,0.7
		S22.7,7.8,22.5,8.1L22.5,8.1z"/>
	<path class="st0" d="M20.9,6.3l-1.2-0.3l-0.7-1c-0.1-0.1-0.2-0.2-0.4-0.2c-0.1,0-0.3,0.1-0.4,0.2l-0.7,1l-1.2,0.3
		c-0.1,0-0.2,0.1-0.3,0.3c0,0.1,0,0.3,0.1,0.4l0.8,1l0,1.2c0,0.1,0.1,0.3,0.2,0.4c0.1,0.1,0.2,0.1,0.3,0.1c0.1,0,0.1,0,0.2,0
		l1.1-0.4l1.1,0.4c0.1,0.1,0.3,0,0.4-0.1c0.1-0.1,0.2-0.2,0.2-0.4l0-1.2l0.8-1c0.1-0.1,0.1-0.3,0.1-0.4C21.1,6.4,21,6.3,20.9,6.3
		L20.9,6.3z M19.8,7.5c-0.1,0.1-0.1,0.2-0.1,0.3l0,0.9l-0.9-0.3c-0.1,0-0.2,0-0.3,0l-0.9,0.3l0-0.9c0-0.1,0-0.2-0.1-0.3L17,6.8
		l0.9-0.3c0.1,0,0.2-0.1,0.2-0.2l0.5-0.8l0.5,0.8c0.1,0.1,0.1,0.1,0.2,0.2l0.9,0.3L19.8,7.5z"/>
</g>
</svg>
