<?xml version="1.0" encoding="utf-8"?>
<!-- Generator: Adobe Illustrator 24.1.0, SVG Export Plug-In . SVG Version: 6.00 Build 0)  -->
<svg version="1.1" id="Capa_1" xmlns="http://www.w3.org/2000/svg" xmlns:xlink="http://www.w3.org/1999/xlink" x="0px" y="0px"
	 viewBox="0 0 25 25" style="enable-background:new 0 0 25 25;" xml:space="preserve">
<style type="text/css">
	.st0{fill:#0B0827;}
</style>
<g>
	<g>
		<path class="st0" d="M6.9,4.6H6.1c0.1-0.9,0.6-0.9,0.8-0.9c0.2,0,0.4-0.2,0.4-0.4V1.9c0-0.1-0.1-0.2-0.1-0.3
			C7.1,1.5,7,1.4,6.9,1.4C5.5,1.5,3.8,2.2,3.8,5.1v2.3C3.8,7.7,4.1,8,4.5,8h2.4c0.4,0,0.7-0.3,0.7-0.7V5.2C7.6,4.9,7.3,4.6,6.9,4.6z
			 M6.7,7.2h-2V5.1c0-2,0.9-2.6,1.8-2.7v0.5C5.9,3,5.2,3.5,5.2,5c0,0.2,0.2,0.4,0.4,0.4h1.1C6.7,5.4,6.7,7.2,6.7,7.2z"/>
	</g>
</g>
<g>
	<g>
		<path class="st0" d="M11.4,4.6h-0.8c0.1-0.9,0.6-0.9,0.8-0.9c0.2,0,0.4-0.2,0.4-0.4V1.9c0-0.1-0.1-0.2-0.1-0.3
			c-0.1-0.1-0.2-0.1-0.3-0.1C10,1.5,8.3,2.2,8.3,5.1v2.3C8.3,7.7,8.6,8,9,8h2.4c0.4,0,0.7-0.3,0.7-0.7V5.2
			C12.1,4.9,11.8,4.6,11.4,4.6z M11.2,7.2h-2V5.1c0-2,0.9-2.6,1.8-2.7v0.5C10.4,3,9.7,3.5,9.7,5c0,0.2,0.2,0.4,0.4,0.4h1.1L11.2,7.2
			L11.2,7.2z"/>
	</g>
</g>
<g>
	<g>
		<path class="st0" d="M14,5c-0.1-0.1-0.2-0.1-0.3-0.1c-0.1,0-0.2,0-0.3,0.1c-0.1,0.1-0.1,0.2-0.1,0.3c0,0.1,0,0.2,0.1,0.3
			c0.1,0.1,0.2,0.1,0.3,0.1c0.1,0,0.2,0,0.3-0.1s0.1-0.2,0.1-0.3C14.2,5.2,14.1,5,14,5z"/>
	</g>
</g>
<g>
	<g>
		<path class="st0" d="M16.2,4.8h-0.6c-0.2,0-0.4,0.2-0.4,0.4c0,0.2,0.2,0.4,0.4,0.4h0.6c3.8,0,7,3.1,7,6.9c0,3.2-2.3,6.1-5.5,6.7
			c-0.2,0-0.4,0.2-0.4,0.4v2.5l-2.7-2.7c-0.1-0.1-0.2-0.1-0.3-0.1h-5c-3.8,0-7-3.1-7-6.9c0-1.2,0.3-2.3,0.9-3.3C3.3,9,3.2,8.8,3,8.6
			c-0.2-0.1-0.5,0-0.6,0.2c-0.6,1.1-1,2.4-1,3.8c0,4.3,3.5,7.7,7.9,7.7h4.8l3.4,3.3c0.1,0.1,0.2,0.1,0.3,0.1c0.1,0,0.1,0,0.2,0
			c0.2-0.1,0.3-0.2,0.3-0.4v-3.2c1.6-0.4,3-1.3,4.1-2.6c1.2-1.4,1.8-3.1,1.8-4.9C24.1,8.3,20.5,4.8,16.2,4.8z"/>
	</g>
</g>
<g>
	<g>
		<path class="st0" d="M18.2,9.2H7.3c-0.2,0-0.4,0.2-0.4,0.4c0,0.2,0.2,0.4,0.4,0.4h10.9c0.2,0,0.4-0.2,0.4-0.4
			C18.6,9.4,18.4,9.2,18.2,9.2z"/>
	</g>
</g>
<g>
	<g>
		<path class="st0" d="M18.2,11.5H7.3c-0.2,0-0.4,0.2-0.4,0.4s0.2,0.4,0.4,0.4h10.9c0.2,0,0.4-0.2,0.4-0.4S18.4,11.5,18.2,11.5z"/>
	</g>
</g>
<g>
	<g>
		<path class="st0" d="M18.2,13.8H7.3c-0.2,0-0.4,0.2-0.4,0.4s0.2,0.4,0.4,0.4h10.9c0.2,0,0.4-0.2,0.4-0.4S18.4,13.8,18.2,13.8z"/>
	</g>
</g>
<g>
	<g>
		<path class="st0" d="M18.2,16.1h-5.8c-0.2,0-0.4,0.2-0.4,0.4s0.2,0.4,0.4,0.4h5.8c0.2,0,0.4-0.2,0.4-0.4S18.4,16.1,18.2,16.1z"/>
	</g>
</g>
<g>
	<g>
		<path class="st0" d="M9.9,16.1L9.9,16.1c-0.3,0-0.4,0.2-0.4,0.4S9.6,17,9.9,17h0c0.2,0,0.4-0.2,0.4-0.4S10.1,16.1,9.9,16.1z"/>
	</g>
</g>
</svg>
