<?xml version="1.0" encoding="utf-8"?>
<!-- Generator: Adobe Illustrator 24.1.0, SVG Export Plug-In . SVG Version: 6.00 Build 0)  -->
<svg version="1.1" id="Layer_5" xmlns="http://www.w3.org/2000/svg" xmlns:xlink="http://www.w3.org/1999/xlink" x="0px" y="0px"
	 viewBox="0 0 25 25" style="enable-background:new 0 0 25 25;" xml:space="preserve">
<style type="text/css">
	.st0{fill:#0B0827;}
</style>
<path class="st0" d="M22.7,12.5h-4.6v-0.8c0-2.6-1.7-4.7-4-5.4c0.8-0.5,1.4-1.5,1.4-2.5c0-1.7-1.4-3-3-3s-3,1.4-3,3
	c0,1.1,0.5,2,1.4,2.5c-2.3,0.7-4,2.9-4,5.4v0.8H2.3c-0.8,0-1.5,0.7-1.5,1.5c0,0.6,0.3,1,0.8,1.3v8.9h2.3v-1.5h17.5v1.5h2.3v-8.9
	c0.5-0.3,0.8-0.7,0.8-1.3C24.3,13.2,23.6,12.5,22.7,12.5z M13.2,10.8l-0.7,0.5l-0.7-0.5l0.6-4c0,0,0.1,0,0.1,0c0,0,0.1,0,0.1,0
	L13.2,10.8z M10.2,3.8c0-1.3,1-2.3,2.3-2.3s2.3,1,2.3,2.3S13.8,6,12.5,6S10.2,5,10.2,3.8z M7.6,11.7c0-2.4,1.7-4.4,4-4.8L11,11.2
	l1.5,1l1.5-1l-0.6-4.3c2.3,0.4,4,2.4,4,4.8v0.8h-1.1v-3h-0.8v3H9.5v-3H8.7v3H7.6V11.7z M2.3,23.5v-8H3v8H2.3z M3.8,22v-6.5h17.5V22
	H3.8z M22.7,23.5H22v-8h0.8V23.5z M22.7,14.8H2.3c-0.4,0-0.8-0.3-0.8-0.8s0.3-0.8,0.8-0.8h20.5c0.4,0,0.8,0.3,0.8,0.8
	S23.2,14.8,22.7,14.8z"/>
<path class="st0" d="M9.8,16.3H6c-0.8,0-1.5,0.7-1.5,1.5s0.7,1.5,1.5,1.5h3.8c0.8,0,1.5-0.7,1.5-1.5S10.7,16.3,9.8,16.3z M9.8,18.6
	H6c-0.4,0-0.8-0.3-0.8-0.8s0.3-0.8,0.8-0.8h3.8c0.4,0,0.8,0.3,0.8,0.8S10.3,18.6,9.8,18.6z"/>
</svg>
